# xmcd
#
# Track frame offsets: 
#        150
#        18827
#        34025
#        47402
#        85347
#        100909
#        127084
#        147157
#        165104
#        187581
#        205611
#        227446
#        245005
#        266479
#        280820
#        303787
#        328455
#        346464
#
# Disc length: 4792 seconds
#
# Revision: 3
# Processed by: cddbd v1.5.2PL0 Copyright (c) Steve Scherf et al.
# Submitted via: ExactAudioCopy v1.3
#
DISCID=ea12b612
DTITLE=Various Artist - Akella Presents - vol.90 - Heavy Blues-Rock  
DTITLE=CD1
DYEAR=2016
DGENRE=Blues
TTITLE0=Dustin Douglas and The Electric Gentlemen - Ain't Your Poppa's B
TTITLE0=lues
TTITLE1=Black Mountain Prophet - Feel Good Mama
TTITLE2=BloYaTop - Mano Loco
TTITLE3=Black Hole Raven - Gone Away
TTITLE4=Rob Tognoni - Hoot, Shoot, Electrocute
TTITLE5=Max Meazza and Pueblo - Jimmy Valentine Blues
TTITLE6=Blindside Blues Band - Journey to the Stars
TTITLE7=Welshly Arms - Love In A Minor Key
TTITLE8=Manu Lanvin - Six Blind White Horses
TTITLE9=100 Watt Vipers - My Fathers Crosselectric
TTITLE10=The Jondo Trio - Homesick
TTITLE11=Cold Truth - Cold As Hell
TTITLE12=Marcus Bonfanti - Will Not Play Your Game
TTITLE13=Roller - Sticks And Stones
TTITLE14=Joanna Connor - By Your Side
TTITLE15=Midnight Blues - Muddy Water
TTITLE16=Jeff Healey - Daze Of The Night
TTITLE17=Dudley Taft - Bandit Queen
EXTD=
EXTT0=
EXTT1=
EXTT2=
EXTT3=
EXTT4=
EXTT5=
EXTT6=
EXTT7=
EXTT8=
EXTT9=
EXTT10=
EXTT11=
EXTT12=
EXTT13=
EXTT14=
EXTT15=
EXTT16=
EXTT17=
PLAYORDER=
